<?xml version="1.0" standalone="no"?>
<!DOCTYPE svg PUBLIC "-//W3C//DTD SVG 20010904//EN"
 "http://www.w3.org/TR/2001/REC-SVG-20010904/DTD/svg10.dtd">
<svg version="1.0" xmlns="http://www.w3.org/2000/svg"
 width="800.000000pt" height="800.000000pt" viewBox="0 0 800.000000 800.000000"
 preserveAspectRatio="xMidYMid meet">
<metadata>
Created by potrace 1.14, written by Peter Selinger 2001-2017
</metadata>
<g transform="translate(0.000000,800.000000) scale(0.100000,-0.100000)"
fill="#000000" stroke="none">
<path d="M3827 7324 c-1 -1 -42 -5 -92 -9 -110 -8 -137 -11 -262 -30 -71 -10
-157 -26 -163 -30 -4 -2 -22 -7 -41 -10 -99 -17 -410 -112 -504 -154 -11 -5
-36 -15 -55 -23 -74 -28 -310 -148 -415 -211 -566 -336 -1026 -839 -1297
-1415 -32 -70 -64 -135 -69 -146 -12 -22 -70 -178 -106 -286 -29 -89 -89 -318
-97 -375 -4 -22 -13 -78 -21 -125 -43 -257 -52 -668 -20 -895 17 -119 28 -193
31 -210 2 -11 7 -33 10 -50 30 -169 131 -500 193 -640 5 -11 17 -38 26 -60 10
-22 42 -89 72 -150 169 -338 361 -603 634 -875 119 -119 305 -276 414 -351 28
-19 52 -36 55 -39 30 -31 296 -184 430 -248 314 -151 686 -263 985 -298 28 -3
52 -7 55 -9 29 -18 545 -27 695 -12 132 13 159 16 180 21 11 3 45 8 75 11 30
3 71 10 90 15 19 5 46 11 60 14 98 18 287 71 415 116 629 220 1210 654 1587
1185 32 44 65 91 75 105 26 35 100 155 136 220 36 63 147 288 147 296 0 3 10
26 22 52 65 143 175 505 201 667 29 178 37 231 43 295 3 41 8 91 10 110 13
131 -1 544 -22 655 -2 11 -7 40 -10 65 -3 25 -7 52 -9 60 -3 8 -7 32 -11 53
-26 172 -139 535 -214 695 -17 35 -30 67 -30 72 0 5 -4 12 -10 15 -5 3 -558
-541 -1227 -1210 -670 -669 -1261 -1258 -1313 -1308 -74 -71 -115 -102 -180
-135 -212 -106 -466 -94 -659 32 -93 60 -1477 1444 -1537 1536 -94 145 -128
338 -89 506 44 189 177 360 345 442 110 54 184 72 295 73 140 2 271 -37 382
-112 26 -17 252 -235 501 -483 249 -248 456 -452 460 -454 4 -1 504 495 1111
1102 l1103 1103 -105 86 c-361 297 -815 529 -1262 643 -126 33 -125 32 -215
49 -112 22 -161 29 -250 40 -118 14 -542 29 -553 19z"/>
<path d="M7273 7056 c-23 -7 -57 -23 -75 -34 -32 -20 -284 -270 -860 -854
-254 -257 -978 -990 -1895 -1916 l-442 -447 -568 566 c-312 311 -581 575 -598
586 -16 12 -53 27 -80 36 -221 65 -458 -144 -424 -375 16 -103 19 -107 760
-849 801 -801 757 -764 909 -764 145 0 140 -3 562 421 202 203 517 520 700
706 183 185 666 672 1073 1083 1202 1213 1286 1298 1317 1343 16 23 27 42 24
42 -3 0 1 15 9 33 42 101 0 253 -93 338 -88 82 -220 117 -319 85z"/>
</g>
</svg>
