<?xml version="1.0" standalone="no"?>
<!DOCTYPE svg PUBLIC "-//W3C//DTD SVG 20010904//EN"
 "http://www.w3.org/TR/2001/REC-SVG-20010904/DTD/svg10.dtd">
<svg version="1.0" xmlns="http://www.w3.org/2000/svg"
 width="700.000000pt" height="700.000000pt" viewBox="0 0 700.000000 700.000000"
 preserveAspectRatio="xMidYMid meet">
<metadata>
Created by potrace 1.14, written by Peter Selinger 2001-2017
</metadata>
<g transform="translate(0.000000,700.000000) scale(0.100000,-0.100000)"
fill="#000000" stroke="none">
<path d="M3404 6349 c-685 -38 -1351 -337 -1844 -829 -445 -444 -729 -1017
-817 -1650 -24 -174 -24 -566 0 -740 114 -819 555 -1532 1232 -1992 433 -295
924 -460 1450 -487 1538 -81 2855 1062 2994 2599 36 389 -11 781 -140 1165
-52 155 -147 376 -164 382 -6 1 -521 -514 -1146 -1145 -1204 -1216 -1186
-1199 -1319 -1240 -37 -11 -88 -16 -155 -16 -112 1 -178 19 -271 76 -35 20
-276 255 -692 672 -612 613 -641 644 -676 716 -97 200 -57 430 104 590 116
116 240 165 399 158 106 -5 174 -26 257 -80 27 -17 236 -220 464 -450 l415
-419 436 438 c239 241 682 688 984 993 l548 554 -34 29 c-149 128 -392 289
-575 380 -328 164 -716 272 -1054 292 -194 11 -258 12 -396 4z"/>
</g>
</svg>
